<svg width="45" height="28" viewBox="0 0 45 28" fill="none" xmlns="http://www.w3.org/2000/svg">
<path d="M18.6982 22.5151H26.3101C27.4971 22.5151 28.2939 21.7432 28.3521 20.5562L28.9248 8.48682H29.9209C30.2612 8.48682 30.5352 8.19629 30.5352 7.85596C30.5352 7.51562 30.2612 7.2334 29.9209 7.2334H26.1274V5.96338C26.1274 4.75977 25.3472 4.0293 24.0688 4.0293H20.9146C19.6362 4.0293 18.856 4.75977 18.856 5.96338V7.2334H15.0874C14.7554 7.2334 14.4648 7.51562 14.4648 7.85596C14.4648 8.20459 14.7554 8.48682 15.0874 8.48682H16.0752L16.6562 20.5645C16.7144 21.7515 17.4946 22.5151 18.6982 22.5151ZM20.1758 6.04639C20.1758 5.57324 20.5078 5.26611 21.0059 5.26611H23.9775C24.4756 5.26611 24.8076 5.57324 24.8076 6.04639V7.2334H20.1758V6.04639ZM18.8145 21.2617C18.3413 21.2617 17.9844 20.9048 17.9595 20.415L17.3784 8.48682H27.5884L27.0405 20.415C27.0239 20.9131 26.667 21.2617 26.1772 21.2617H18.8145ZM20.043 19.8423C20.3584 19.8423 20.5659 19.6431 20.5576 19.3525L20.3003 10.4707C20.292 10.1802 20.0845 9.98926 19.7856 9.98926C19.4702 9.98926 19.2627 10.1885 19.271 10.479L19.52 19.3525C19.5283 19.6514 19.7358 19.8423 20.043 19.8423ZM22.5 19.8423C22.8154 19.8423 23.0396 19.6431 23.0396 19.3525V10.479C23.0396 10.1885 22.8154 9.98926 22.5 9.98926C22.1846 9.98926 21.9688 10.1885 21.9688 10.479V19.3525C21.9688 19.6431 22.1846 19.8423 22.5 19.8423ZM24.9653 19.8423C25.2642 19.8423 25.4717 19.6514 25.48 19.3525L25.729 10.479C25.7373 10.1885 25.5298 9.98926 25.2144 9.98926C24.9155 9.98926 24.708 10.1802 24.6997 10.479L24.4507 19.3525C24.4424 19.6431 24.6499 19.8423 24.9653 19.8423Z" fill="white" fill-opacity="0.55"/>
</svg>
