<svg width="20" height="20" viewBox="0 0 20 20" fill="none" xmlns="http://www.w3.org/2000/svg">
<path d="M5.16943 15.7754C5.43604 15.7754 5.65186 15.5659 5.65186 15.2993V11.77C5.81055 11.7002 6.40723 11.4717 7.34033 11.4717C9.68896 11.4717 11.1616 12.6206 13.396 12.6206C14.3862 12.6206 14.7544 12.5127 15.2368 12.2969C15.6748 12.1001 15.9604 11.77 15.9604 11.186V4.74316C15.9604 4.40039 15.6685 4.20361 15.3003 4.20361C14.9893 4.20361 14.4053 4.47021 13.3135 4.47021C11.0791 4.47021 9.61279 3.32129 7.25781 3.32129C6.26758 3.32129 5.89307 3.4292 5.41064 3.64502C4.97266 3.8418 4.68701 4.17188 4.68701 4.74951V15.2993C4.68701 15.5596 4.90918 15.7754 5.16943 15.7754ZM13.396 11.6621C11.2822 11.6621 9.78418 10.5132 7.34033 10.5132C6.64209 10.5132 6.00732 10.5957 5.65186 10.7417V4.78125C5.74072 4.57178 6.26758 4.27979 7.25781 4.27979C9.49219 4.27979 10.9839 5.42871 13.3135 5.42871C14.0054 5.42871 14.5767 5.34619 15.002 5.22559V11.1606C14.9131 11.3701 14.3862 11.6621 13.396 11.6621Z" fill="#2DA4FF"/>
</svg>
