<svg width="13" height="13" viewBox="0 0 13 13" fill="none" xmlns="http://www.w3.org/2000/svg">
<path d="M0.29834 5.22363C0.29834 8.0166 2.5708 10.2891 5.36377 10.2891C6.46826 10.2891 7.47754 9.93359 8.30908 9.33691L11.4321 12.4663C11.5781 12.6123 11.7686 12.6821 11.9717 12.6821C12.4033 12.6821 12.7017 12.3584 12.7017 11.9331C12.7017 11.73 12.6255 11.5459 12.4922 11.4126L9.38818 8.28955C10.042 7.43896 10.4292 6.37891 10.4292 5.22363C10.4292 2.43066 8.15674 0.158203 5.36377 0.158203C2.5708 0.158203 0.29834 2.43066 0.29834 5.22363ZM1.38379 5.22363C1.38379 3.02734 3.16748 1.24365 5.36377 1.24365C7.56006 1.24365 9.34375 3.02734 9.34375 5.22363C9.34375 7.41992 7.56006 9.20361 5.36377 9.20361C3.16748 9.20361 1.38379 7.41992 1.38379 5.22363Z" fill="white" fill-opacity="0.55"/>
</svg>
