<svg width="17" height="17" viewBox="0 0 17 17" fill="none" xmlns="http://www.w3.org/2000/svg">
<path d="M15.7593 2.2002L16.3569 1.58594C16.6392 1.28711 16.6392 0.888672 16.3569 0.614746L16.166 0.415527C15.9087 0.158203 15.502 0.191406 15.228 0.457031L14.6221 1.05469L15.7593 2.2002ZM5.77344 11.2563L7.39209 10.5508L15.145 2.80615L14.0078 1.68555L6.26318 9.43018L5.51611 10.9907C5.44971 11.1318 5.61572 11.3228 5.77344 11.2563ZM2.75195 16.6353H12.4971C13.9912 16.6353 14.8545 15.772 14.8545 14.062V5.18848L13.5181 6.5249V13.9956C13.5181 14.8589 13.0532 15.2988 12.4805 15.2988H2.77686C1.94678 15.2988 1.48193 14.8589 1.48193 13.9956V4.57422C1.48193 3.71094 1.94678 3.2627 2.77686 3.2627H10.3389L11.6753 1.92627H2.75195C1.02539 1.92627 0.145508 2.78955 0.145508 4.49951V14.062C0.145508 15.7803 1.02539 16.6353 2.75195 16.6353Z" fill="white" fill-opacity="0.55"/>
</svg>
